<?xml version="1.0" standalone="no"?><!DOCTYPE svg PUBLIC "-//W3C//DTD SVG 1.1//EN" "http://www.w3.org/Graphics/SVG/1.1/DTD/svg11.dtd"><svg height="244" node-id="1" sillyvg="true" template-height="244" template-width="251" version="1.1" viewBox="0 0 251 244" width="251" xmlns="http://www.w3.org/2000/svg" xmlns:xlink="http://www.w3.org/1999/xlink"><defs node-id="228"></defs><g node-id="463"><path d="M 250.40 114.60 C 250.40 71.92 217.31 37.32 176.49 37.32 C 175.85 37.32 175.22 37.35 174.59 37.37 C 161.71 14.73 138.07 -0.45 111.04 -0.45 C 70.22 -0.45 37.13 34.15 37.13 76.83 C 37.13 77.38 37.16 77.93 37.17 78.48 C 14.84 91.78 -0.22 116.87 -0.22 145.65 C -0.22 188.33 32.87 222.92 73.69 222.92 C 76.01 222.92 78.31 222.80 80.58 222.58 C 94.14 227.55 115.64 250.70 138.60 250.70 C 176.34 250.70 206.44 221.13 210.94 182.96 C 234.40 170.02 250.40 144.27 250.40 114.60 Z" fill="#f7e9e3" fill-rule="nonzero" group-id="1" node-id="231" stroke="none" target-height="251.147" target-width="250.61899" target-x="-0.221" target-y="-0.45"></path></g><g node-id="464"><g node-id="466"><g node-id="474"><g node-id="488"><path d="M 134.73 117.48 C 134.73 119.86 132.79 121.80 130.41 121.80 L 27.62 121.80 C 25.25 121.80 23.30 119.86 23.30 117.48 L 23.30 44.93 C 23.30 42.55 25.25 40.61 27.62 40.61 L 130.41 40.61 C 132.78 40.61 134.72 42.55 134.72 44.93 L 134.73 117.48 L 134.73 117.48 Z" fill="#dae7f5" fill-rule="nonzero" group-id="2,4,12,26" node-id="241" stroke="none" target-height="81.189" target-width="111.422005" target-x="23.305" target-y="40.61"></path><path d="M 130.41 123.30 L 27.62 123.30 C 24.41 123.30 21.80 120.69 21.80 117.48 L 21.80 44.93 C 21.80 41.72 24.41 39.11 27.62 39.11 L 130.41 39.11 C 133.62 39.11 136.22 41.72 136.22 44.93 L 136.23 117.48 C 136.23 120.69 133.62 123.30 130.41 123.30 Z M 27.62 42.11 C 26.07 42.11 24.80 43.37 24.80 44.93 L 24.80 117.48 C 24.80 119.03 26.07 120.30 27.62 120.30 L 130.41 120.30 C 131.96 120.30 133.23 119.03 133.23 117.48 L 133.22 44.93 C 133.22 43.37 131.96 42.11 130.41 42.11 L 27.62 42.11 Z" fill="#ccccde" fill-rule="nonzero" group-id="2,4,12,26" node-id="243" stroke="none" target-height="84.189" target-width="114.421" target-x="21.805" target-y="39.11"></path></g><g node-id="489"><path d="M 134.73 117.48 C 134.73 119.86 132.79 121.80 130.41 121.80 L 27.62 121.80 C 25.25 121.80 23.30 119.86 23.30 117.48 L 23.30 44.93 C 23.30 42.55 25.25 40.61 27.62 40.61 L 130.41 40.61 C 132.78 40.61 134.72 42.55 134.72 44.93 L 134.73 117.48 L 134.73 117.48 Z" fill="#ffffff" fill-rule="nonzero" group-id="2,4,12,27" node-id="248" stroke="none" target-height="81.189" target-width="111.422005" target-x="23.305" target-y="40.61"></path><path d="M 130.41 122.30 L 27.62 122.30 C 24.97 122.30 22.80 120.14 22.80 117.48 L 22.80 44.93 C 22.80 42.27 24.97 40.11 27.62 40.11 L 130.41 40.11 C 133.06 40.11 135.22 42.27 135.22 44.93 L 135.23 117.48 C 135.23 120.14 133.07 122.30 130.41 122.30 Z M 27.62 41.11 C 25.52 41.11 23.80 42.82 23.80 44.93 L 23.80 117.48 C 23.80 119.59 25.52 121.30 27.62 121.30 L 130.41 121.30 C 132.51 121.30 134.23 119.59 134.23 117.48 L 134.22 44.93 C 134.22 42.82 132.51 41.11 130.41 41.11 L 27.62 41.11 Z" fill="#ccccde" fill-rule="nonzero" group-id="2,4,12,27" node-id="250" stroke="none" target-height="82.189" target-width="112.421" target-x="22.805" target-y="40.11"></path></g></g><g node-id="475"><path d="M 32.38 48.60 L 125.23 48.60 L 125.23 113.81 L 32.38 113.81 Z" fill="#dae7f5" fill-rule="nonzero" group-id="2,4,13" node-id="256" stroke="none" target-height="65.213" target-width="92.852" target-x="32.375" target-y="48.598"></path><path d="M 125.23 115.31 L 32.38 115.31 C 31.55 115.31 30.88 114.64 30.88 113.81 L 30.88 48.60 C 30.88 47.77 31.55 47.10 32.38 47.10 L 125.23 47.10 C 126.06 47.10 126.73 47.77 126.73 48.60 L 126.73 113.81 C 126.73 114.64 126.06 115.31 125.23 115.31 Z M 33.88 112.31 L 123.73 112.31 L 123.73 50.10 L 33.88 50.10 L 33.88 112.31 Z" fill="#ccccde" fill-rule="nonzero" group-id="2,4,13" node-id="258" stroke="none" target-height="68.213" target-width="95.852" target-x="30.875" target-y="47.098"></path></g></g><g node-id="467"><g node-id="476"><path d="M 126.09 213.88 C 126.09 216.63 123.84 218.88 121.09 218.88 L 20.74 218.88 C 17.99 218.88 15.74 216.63 15.74 213.88 L 15.74 150.32 C 15.74 147.57 17.99 145.32 20.74 145.32 L 121.09 145.32 C 123.84 145.32 126.09 147.57 126.09 150.32 L 126.09 213.88 L 126.09 213.88 Z" fill="#ffffff" fill-rule="nonzero" group-id="2,5,14" node-id="266" stroke="none" target-height="73.56499" target-width="110.348" target-x="15.74" target-y="145.32"></path><path d="M 121.09 220.38 L 20.74 220.38 C 17.16 220.38 14.24 217.47 14.24 213.88 L 14.24 150.32 C 14.24 146.74 17.16 143.82 20.74 143.82 L 121.09 143.82 C 124.67 143.82 127.59 146.74 127.59 150.32 L 127.59 213.88 C 127.59 217.47 124.67 220.38 121.09 220.38 Z M 20.74 146.82 C 18.81 146.82 17.24 148.39 17.24 150.32 L 17.24 213.88 C 17.24 215.81 18.81 217.38 20.74 217.38 L 121.09 217.38 C 123.02 217.38 124.59 215.81 124.59 213.88 L 124.59 150.32 C 124.59 148.39 123.02 146.82 121.09 146.82 L 20.74 146.82 Z" fill="#ccccde" fill-rule="nonzero" group-id="2,5,14" node-id="268" stroke="none" target-height="76.56499" target-width="113.348" target-x="14.24" target-y="143.82"></path></g><g node-id="477"><path d="M 26.25 154.30 L 115.58 154.30 L 115.58 208.16 L 26.25 208.16 Z" fill="#d3e3f5" fill-rule="nonzero" group-id="2,5,15" node-id="273" stroke="none" target-height="53.86" target-width="89.328" target-x="26.25" target-y="154.296"></path><path d="M 115.58 209.66 L 26.25 209.66 C 25.42 209.66 24.75 208.98 24.75 208.16 L 24.75 154.30 C 24.75 153.47 25.42 152.80 26.25 152.80 L 115.58 152.80 C 116.41 152.80 117.08 153.47 117.08 154.30 L 117.08 208.16 C 117.08 208.98 116.41 209.66 115.58 209.66 Z M 27.75 206.66 L 114.08 206.66 L 114.08 155.80 L 27.75 155.80 L 27.75 206.66 Z" fill="#ccccde" fill-rule="nonzero" group-id="2,5,15" node-id="275" stroke="none" target-height="56.86" target-width="92.328" target-x="24.75" target-y="152.796"></path></g><g node-id="478"><path d="M 132.66 218.88 C 132.66 218.88 132.66 221.65 132.66 225.02 C 132.66 228.39 129.70 231.15 126.09 231.15 L 17.05 231.15 C 13.44 231.15 10.49 228.39 10.49 225.02 C 10.49 221.65 10.49 218.88 10.49 218.88" fill="#ffffff" fill-rule="nonzero" group-id="2,5,16" node-id="280" stroke="none" target-height="12.262009" target-width="122.170006" target-x="10.486" target-y="218.885"></path><path d="M 126.09 232.65 L 17.05 232.65 C 12.61 232.65 8.99 229.22 8.99 225.01 L 8.99 218.88 C 8.99 218.06 9.66 217.38 10.49 217.38 L 132.65 217.38 C 133.48 217.38 134.15 218.06 134.15 218.88 L 134.15 225.01 C 134.15 229.22 130.53 232.65 126.09 232.65 Z M 11.99 220.38 L 11.99 225.02 C 11.99 227.57 14.26 229.65 17.05 229.65 L 126.09 229.65 C 128.88 229.65 131.15 227.57 131.15 225.02 L 131.15 220.38 L 11.99 220.38 Z" fill="#ccccde" fill-rule="nonzero" group-id="2,5,16" node-id="282" stroke="none" target-height="15.261993" target-width="125.167" target-x="8.986" target-y="217.384"></path></g></g><g node-id="468"><g node-id="479"><path d="M 199.76 232.96 L 193.69 204.42 L 167.89 204.42 L 162.23 233.37" fill="#f0f0ff" fill-rule="nonzero" group-id="2,6,17" node-id="290" stroke="none" target-height="28.949005" target-width="37.537003" target-x="162.226" target-y="204.416"></path><path d="M 162.23 234.87 C 162.13 234.87 162.04 234.86 161.94 234.84 C 161.12 234.68 160.59 233.89 160.75 233.08 L 166.42 204.13 C 166.56 203.42 167.17 202.92 167.89 202.92 L 193.69 202.92 C 194.40 202.92 195.01 203.41 195.16 204.10 L 201.23 232.65 C 201.40 233.46 200.88 234.25 200.08 234.43 C 199.26 234.60 198.47 234.08 198.30 233.27 L 192.48 205.92 L 169.13 205.92 L 163.70 233.65 C 163.56 234.37 162.93 234.87 162.23 234.87 Z" fill="#ccccde" fill-rule="nonzero" group-id="2,6,17" node-id="292" stroke="none" target-height="31.949005" target-width="40.481567" target-x="160.754" target-y="202.916"></path></g><path d="M 206.83 234.87 L 155.16 234.87 C 154.34 234.87 153.66 234.19 153.66 233.37 C 153.66 232.54 154.34 231.87 155.16 231.87 L 206.83 231.87 C 207.66 231.87 208.33 232.54 208.33 233.37 C 208.33 234.19 207.66 234.87 206.83 234.87 Z" fill="#ccccde" fill-rule="nonzero" group-id="2,6" node-id="295" stroke="none" target-height="3" target-width="54.662994" target-x="153.664" target-y="231.865"></path><path d="M 249.88 199.90 C 249.88 202.87 247.46 205.29 244.49 205.29 L 117.50 205.29 C 114.53 205.29 112.11 202.87 112.11 199.90 L 112.11 107.65 C 112.11 104.69 114.53 102.26 117.50 102.26 L 244.49 102.26 C 247.45 102.26 249.88 104.69 249.88 107.65 L 249.88 199.90 L 249.88 199.90 Z" fill="#ffffff" fill-rule="nonzero" group-id="2,6,18" node-id="299" stroke="none" target-height="103.02999" target-width="137.771" target-x="112.107" target-y="102.26"></path><path d="M 244.49 205.79 L 117.50 205.79 C 114.25 205.79 111.61 203.15 111.61 199.90 L 111.61 107.65 C 111.61 104.40 114.25 101.76 117.50 101.76 L 244.49 101.76 C 247.73 101.76 250.38 104.40 250.38 107.65 L 250.38 199.90 C 250.38 203.15 247.74 205.79 244.49 205.79 Z M 117.50 102.76 C 114.80 102.76 112.61 104.95 112.61 107.65 L 112.61 199.90 C 112.61 202.60 114.80 204.79 117.50 204.79 L 244.49 204.79 C 247.18 204.79 249.38 202.60 249.38 199.90 L 249.38 107.65 C 249.38 104.95 247.18 102.76 244.49 102.76 L 117.50 102.76 Z" fill="#ccccde" fill-rule="nonzero" group-id="2,6,18" node-id="301" stroke="none" target-height="104.02999" target-width="138.771" target-x="111.607" target-y="101.76"></path><path d="M 123.94 114.84 L 238.05 114.84 L 238.05 184.11 L 123.94 184.11 Z" fill="#d3e3f5" fill-rule="nonzero" group-id="2,6,19" node-id="306" stroke="none" target-height="69.266" target-width="114.10899" target-x="123.94" target-y="114.842"></path><path d="M 238.05 185.61 L 123.94 185.61 C 123.11 185.61 122.44 184.94 122.44 184.11 L 122.44 114.84 C 122.44 114.01 123.11 113.34 123.94 113.34 L 238.05 113.34 C 238.88 113.34 239.55 114.01 239.55 114.84 L 239.55 184.11 C 239.55 184.94 238.88 185.61 238.05 185.61 Z M 125.44 182.61 L 236.55 182.61 L 236.55 116.34 L 125.44 116.34 L 125.44 182.61 Z" fill="#ccccde" fill-rule="nonzero" group-id="2,6,19" node-id="308" stroke="none" target-height="72.26599" target-width="117.10899" target-x="122.44" target-y="113.341"></path><path d="M 244.49 206.79 L 117.50 206.79 C 113.70 206.79 110.61 203.70 110.61 199.90 L 110.61 107.65 C 110.61 103.85 113.70 100.76 117.50 100.76 L 244.49 100.76 C 248.29 100.76 251.38 103.85 251.38 107.65 L 251.38 199.90 C 251.38 203.70 248.29 206.79 244.49 206.79 Z M 117.50 103.76 C 115.36 103.76 113.61 105.51 113.61 107.65 L 113.61 199.90 C 113.61 202.04 115.35 203.79 117.50 203.79 L 244.49 203.79 C 246.63 203.79 248.38 202.04 248.38 199.90 L 248.38 107.65 C 248.38 105.51 246.63 103.76 244.49 103.76 L 117.50 103.76 Z" fill="#ccccde" fill-rule="nonzero" group-id="2,6" node-id="311" stroke="none" target-height="106.02999" target-width="140.771" target-x="110.607" target-y="100.76"></path></g><g node-id="469"><g node-id="482"><g node-id="490"><path d="M 226.73 126.30 C 226.73 129.05 224.48 131.30 221.73 131.30 L 173.73 131.30 C 170.98 131.30 168.73 129.05 168.73 126.30 L 168.73 42.30 C 168.73 39.55 170.98 37.30 173.73 37.30 L 221.73 37.30 C 224.48 37.30 226.73 39.55 226.73 42.30 L 226.73 126.30 Z" fill="#dae7f5" fill-rule="nonzero" group-id="2,7,20,28" node-id="320" stroke="none" target-height="94" target-width="58" target-x="168.727" target-y="37.3"></path><path d="M 221.73 132.80 L 173.73 132.80 C 170.14 132.80 167.23 129.88 167.23 126.30 L 167.23 42.30 C 167.23 38.72 170.14 35.80 173.73 35.80 L 221.73 35.80 C 225.31 35.80 228.23 38.72 228.23 42.30 L 228.23 126.30 C 228.23 129.88 225.31 132.80 221.73 132.80 Z M 173.73 38.80 C 171.80 38.80 170.23 40.37 170.23 42.30 L 170.23 126.30 C 170.23 128.23 171.80 129.80 173.73 129.80 L 221.73 129.80 C 223.66 129.80 225.23 128.23 225.23 126.30 L 225.23 42.30 C 225.23 40.37 223.66 38.80 221.73 38.80 L 173.73 38.80 Z" fill="#ccccde" fill-rule="nonzero" group-id="2,7,20,28" node-id="322" stroke="none" target-height="97" target-width="61" target-x="167.227" target-y="35.8"></path></g><g node-id="491"><path d="M 226.73 126.30 C 226.73 129.05 224.48 131.30 221.73 131.30 L 173.73 131.30 C 170.98 131.30 168.73 129.05 168.73 126.30 L 168.73 42.30 C 168.73 39.55 170.98 37.30 173.73 37.30 L 221.73 37.30 C 224.48 37.30 226.73 39.55 226.73 42.30 L 226.73 126.30 Z" fill="#dae7f5" fill-rule="nonzero" group-id="2,7,20,29" node-id="327" stroke="none" target-height="94" target-width="58" target-x="168.727" target-y="37.3"></path><path d="M 221.73 132.80 L 173.73 132.80 C 170.14 132.80 167.23 129.88 167.23 126.30 L 167.23 42.30 C 167.23 38.72 170.14 35.80 173.73 35.80 L 221.73 35.80 C 225.31 35.80 228.23 38.72 228.23 42.30 L 228.23 126.30 C 228.23 129.88 225.31 132.80 221.73 132.80 Z M 173.73 38.80 C 171.80 38.80 170.23 40.37 170.23 42.30 L 170.23 126.30 C 170.23 128.23 171.80 129.80 173.73 129.80 L 221.73 129.80 C 223.66 129.80 225.23 128.23 225.23 126.30 L 225.23 42.30 C 225.23 40.37 223.66 38.80 221.73 38.80 L 173.73 38.80 Z" fill="#ccccde" fill-rule="nonzero" group-id="2,7,20,29" node-id="329" stroke="none" target-height="97" target-width="61" target-x="167.227" target-y="35.8"></path></g></g><path d="M 204.23 45.30 L 191.23 45.30 C 190.40 45.30 189.73 44.63 189.73 43.80 C 189.73 42.97 190.40 42.30 191.23 42.30 L 204.23 42.30 C 205.06 42.30 205.73 42.97 205.73 43.80 C 205.73 44.63 205.06 45.30 204.23 45.30 Z" fill="#ccccde" fill-rule="nonzero" group-id="2,7" node-id="333" stroke="none" target-height="3" target-width="16" target-x="189.727" target-y="42.3"></path></g></g><g node-id="465"><g node-id="470"><g node-id="483"><path d="M 90.00 239.64 L 65.42 239.64 C 64.59 239.64 63.92 238.97 63.92 238.14 C 63.92 237.31 64.59 236.64 65.42 236.64 L 90.00 236.64 C 90.83 236.64 91.50 237.31 91.50 238.14 C 91.50 238.97 90.83 239.64 90.00 239.64 Z" fill="#d8d8f5" fill-opacity="0.45" fill-rule="nonzero" group-id="3,8,21" node-id="342" stroke="none" target-height="3" target-width="27.582996" target-x="63.922" target-y="236.639"></path></g><g node-id="484"><path d="M 58.49 239.64 L 50.49 239.64 C 49.66 239.64 48.99 238.97 48.99 238.14 C 48.99 237.31 49.66 236.64 50.49 236.64 L 58.49 236.64 C 59.32 236.64 59.99 237.31 59.99 238.14 C 59.99 238.97 59.32 239.64 58.49 239.64 Z" fill="#d8d8f5" fill-opacity="0.45" fill-rule="nonzero" group-id="3,8,22" node-id="347" stroke="none" target-height="3" target-width="11" target-x="48.99" target-y="236.639"></path></g><g node-id="485"><path d="M 190.49 239.64 L 162.99 239.64 C 162.16 239.64 161.49 238.97 161.49 238.14 C 161.49 237.31 162.16 236.64 162.99 236.64 L 190.49 236.64 C 191.32 236.64 191.99 237.31 191.99 238.14 C 191.99 238.97 191.32 239.64 190.49 239.64 Z" fill="#d8d8f5" fill-opacity="0.45" fill-rule="nonzero" group-id="3,8,23" node-id="352" stroke="none" target-height="3" target-width="30.5" target-x="161.49" target-y="236.639"></path></g><g node-id="486"><path d="M 208.49 239.64 L 197.99 239.64 C 197.16 239.64 196.49 238.97 196.49 238.14 C 196.49 237.31 197.16 236.64 197.99 236.64 L 208.49 236.64 C 209.32 236.64 209.99 237.31 209.99 238.14 C 209.99 238.97 209.32 239.64 208.49 239.64 Z" fill="#d8d8f5" fill-opacity="0.45" fill-rule="nonzero" group-id="3,8,24" node-id="357" stroke="none" target-height="3" target-width="13.5" target-x="196.49" target-y="236.639"></path></g><g node-id="487"><path d="M 173.86 224.47 C 173.86 232.27 167.47 238.66 159.66 238.66 L 96.73 238.66 C 88.92 238.66 82.54 232.27 82.54 224.47 L 82.54 87.47 C 82.54 79.66 88.92 73.27 96.73 73.27 L 159.66 73.27 C 167.47 73.27 173.86 79.66 173.86 87.47 L 173.86 224.47 L 173.86 224.47 L 173.86 224.47 Z" fill="#f0f0ff" fill-rule="nonzero" group-id="3,8,25" node-id="362" stroke="none" target-height="165.395" target-width="91.322" target-x="82.536" target-y="73.269"></path><path d="M 173.86 224.47 C 173.86 232.27 167.47 238.66 159.66 238.66 L 96.73 238.66 C 88.92 238.66 82.54 232.27 82.54 224.47 L 82.54 87.47 C 82.54 79.66 88.92 73.27 96.73 73.27 L 159.66 73.27 C 167.47 73.27 173.86 79.66 173.86 87.47 L 173.86 224.47 L 173.86 224.47 L 173.86 224.47 Z" fill="#ffffff" fill-rule="nonzero" group-id="3,8,25" node-id="364" stroke="none" target-height="165.395" target-width="91.322" target-x="82.536" target-y="73.269"></path><path d="M 82.53 91.35 L 173.86 91.35 L 173.86 219.20 L 82.53 219.20 Z" fill="#bddcff" fill-rule="nonzero" group-id="3,8,25" node-id="366" stroke="none" target-height="127.854004" target-width="91.323006" target-x="82.533" target-y="91.349"></path><g node-id="492"><path d="M 86.76 219.20 L 173.86 132.10 L 173.86 161.44 L 116.09 219.20 Z" fill="#deefff" fill-opacity="0.49" fill-rule="nonzero" group-id="3,8,25,30" node-id="370" stroke="none" target-height="87.099" target-width="87.09799" target-x="86.761" target-y="132.104"></path></g><g node-id="493"><path d="M 173.86 161.44 L 116.09 219.20 L 173.86 219.20 Z" fill="#ffffff" fill-opacity="0.4" fill-rule="nonzero" group-id="3,8,25,31" node-id="375" stroke="none" target-height="57.764008" target-width="57.76499" target-x="116.094" target-y="161.439"></path></g><path d="M 159.66 240.16 L 96.73 240.16 C 85.58 240.16 81.04 235.62 81.04 224.47 L 81.04 87.47 C 81.04 76.32 85.58 71.77 96.73 71.77 L 159.66 71.77 C 170.81 71.77 175.36 76.32 175.36 87.47 L 175.36 224.47 C 175.36 235.62 170.81 240.16 159.66 240.16 Z M 96.73 74.77 C 87.24 74.77 84.04 77.97 84.04 87.47 L 84.04 224.47 C 84.04 233.96 87.24 237.16 96.73 237.16 L 159.66 237.16 C 169.15 237.16 172.36 233.96 172.36 224.47 L 172.36 87.47 C 172.36 77.97 169.16 74.77 159.66 74.77 L 96.73 74.77 Z" fill="#6e6e96" fill-rule="nonzero" group-id="3,8,25" node-id="378" stroke="none" target-height="168.395" target-width="94.322" target-x="81.036" target-y="71.769"></path><path d="M 82.53 88.73 L 173.86 88.73 L 173.86 91.73 L 82.53 91.73 Z" fill="#6e6e96" fill-rule="nonzero" group-id="3,8,25" node-id="380" stroke="none" target-height="3" target-width="91.325005" target-x="82.533" target-y="88.728"></path><path d="M 82.53 217.70 L 173.86 217.70 L 173.86 220.70 L 82.53 220.70 Z" fill="#6e6e96" fill-rule="nonzero" group-id="3,8,25" node-id="382" stroke="none" target-height="3" target-width="91.325005" target-x="82.533" target-y="217.703"></path><path d="M 134.36 83.41 L 122.03 83.41 C 121.20 83.41 120.53 82.74 120.53 81.91 C 120.53 81.08 121.20 80.41 122.03 80.41 L 134.36 80.41 C 135.19 80.41 135.86 81.08 135.86 81.91 C 135.86 82.74 135.19 83.41 134.36 83.41 Z" fill="#6e6e96" fill-rule="nonzero" group-id="3,8,25" node-id="384" stroke="none" target-height="3" target-width="15.332001" target-x="120.53" target-y="80.408"></path><path d="M 128.20 235.51 C 124.67 235.51 121.80 232.64 121.80 229.11 C 121.80 225.59 124.67 222.71 128.20 222.71 C 131.72 222.71 134.60 225.59 134.60 229.11 C 134.60 232.64 131.72 235.51 128.20 235.51 Z M 128.20 225.71 C 126.32 225.71 124.80 227.24 124.80 229.11 C 124.80 230.99 126.32 232.51 128.20 232.51 C 130.07 232.51 131.60 230.99 131.60 229.11 C 131.60 227.24 130.07 225.71 128.20 225.71 Z" fill="#6e6e96" fill-rule="nonzero" group-id="3,8,25" node-id="386" stroke="none" target-height="12.80101" target-width="12.8010025" target-x="121.796" target-y="222.713"></path><path d="M 165.82 81.91 C 165.82 82.95 164.97 83.80 163.92 83.80 C 162.87 83.80 162.02 82.95 162.02 81.91 C 162.02 80.86 162.87 80.01 163.92 80.01 C 164.97 80.01 165.82 80.86 165.82 81.91 Z" fill="#6e6e96" fill-rule="nonzero" group-id="3,8,25" node-id="388" stroke="none" target-height="3.7939987" target-width="3.793991" target-x="162.024" target-y="80.01"></path><path d="M 158.86 81.91 C 158.86 82.95 158.01 83.80 156.96 83.80 C 155.92 83.80 155.07 82.95 155.07 81.91 C 155.07 80.86 155.92 80.01 156.96 80.01 C 158.01 80.01 158.86 80.86 158.86 81.91 Z" fill="#6e6e96" fill-rule="nonzero" group-id="3,8,25" node-id="390" stroke="none" target-height="3.7939987" target-width="3.793991" target-x="155.067" target-y="80.01"></path><path d="M 173.86 90.23 L 82.53 90.23 L 82.53 219.20 L 86.76 219.20 L 86.76 94.56 L 173.86 94.56 Z" fill="#6e6e96" fill-opacity="0.15" fill-rule="nonzero" group-id="3,8,25,32" node-id="394" stroke="none" target-height="128.975" target-width="91.326" target-x="82.533" target-y="90.228"></path><path d="M 82.53 86.52 L 173.86 86.52 L 173.86 90.23 L 82.53 90.23 Z" fill="#6e6e96" fill-opacity="0.15" fill-rule="nonzero" group-id="3,8,25,33" node-id="399" stroke="none" target-height="3.7109985" target-width="91.323006" target-x="82.533" target-y="86.517"></path><path d="M 160.29 235.50 L 97.36 235.50 C 89.55 235.50 83.17 231.64 83.17 221.30 L 83.17 224.78 C 83.17 237.65 89.56 238.98 97.36 238.98 L 160.29 238.98 C 168.10 238.98 174.49 235.12 174.49 224.78 L 174.49 224.78 L 174.49 221.30 L 174.49 221.30 C 174.49 229.11 168.10 235.50 160.29 235.50 Z" fill="#6e6e96" fill-opacity="0.15" fill-rule="nonzero" group-id="3,8,25,34" node-id="404" stroke="none" target-height="17.677002" target-width="91.325005" target-x="83.167" target-y="221.303"></path></g></g><g node-id="471"><path d="M 106.99 98.78 L 106.99 183.62 L 167.52 183.62 L 167.52 98.78 L 106.99 98.78 Z M 106.99 212.29 L 167.52 212.29 L 167.52 188.29 L 106.99 188.29 L 106.99 212.29 Z" fill="#6e6e96" fill-opacity="0.51" fill-rule="nonzero" group-id="3,9" node-id="411" stroke="none" target-height="113.509995" target-width="60.532997" target-x="106.99" target-y="98.78"></path></g><g node-id="472"><path d="M 111.12 112.54 L 120.52 112.54 L 120.52 114.54 L 111.12 114.54 Z" fill="#a1ffd2" fill-rule="nonzero" group-id="3,10" node-id="416" stroke="none" target-height="2" target-width="9.403" target-x="111.116" target-y="112.539"></path><path d="M 127.39 112.54 L 143.66 112.54 L 143.66 114.54 L 127.39 114.54 Z" fill="#ccccde" fill-rule="nonzero" group-id="3,10" node-id="418" stroke="none" target-height="2" target-width="16.270996" target-x="127.39" target-y="112.539"></path><path d="M 111.12 117.04 L 129.20 117.04 L 129.20 119.04 L 111.12 119.04 Z" fill="#fcbaff" fill-rule="nonzero" group-id="3,10" node-id="420" stroke="none" target-height="2" target-width="18.082" target-x="111.116" target-y="117.041"></path><path d="M 134.98 117.04 L 142.94 117.04 L 142.94 119.04 L 134.98 119.04 Z" fill="#ccccde" fill-rule="nonzero" group-id="3,10" node-id="422" stroke="none" target-height="2" target-width="7.953003" target-x="134.984" target-y="117.041"></path><path d="M 111.12 122.29 L 122.33 122.29 L 122.33 124.29 L 111.12 124.29 Z" fill="#ccccde" fill-rule="nonzero" group-id="3,10" node-id="424" stroke="none" target-height="2" target-width="11.211006" target-x="111.116" target-y="122.294"></path><path d="M 128.47 122.29 L 132.81 122.29 L 132.81 124.29 L 128.47 124.29 Z" fill="#fcbaff" fill-rule="nonzero" group-id="3,10" node-id="426" stroke="none" target-height="2" target-width="4.3379974" target-x="128.474" target-y="122.294"></path><path d="M 111.12 127.17 L 125.58 127.17 L 125.58 129.17 L 111.12 129.17 Z" fill="#ccccde" fill-rule="nonzero" group-id="3,10" node-id="428" stroke="none" target-height="2" target-width="14.466003" target-x="111.116" target-y="127.172"></path><path d="M 119.07 131.68 L 133.18 131.68 L 133.18 133.68 L 119.07 133.68 Z" fill="#ccccde" fill-rule="nonzero" group-id="3,10" node-id="430" stroke="none" target-height="2" target-width="14.102997" target-x="119.073" target-y="131.675"></path><path d="M 138.96 131.68 L 143.66 131.68 L 143.66 133.68 L 138.96 133.68 Z" fill="#fcbaff" fill-rule="nonzero" group-id="3,10" node-id="432" stroke="none" target-height="2" target-width="4.700989" target-x="138.96" target-y="131.675"></path><path d="M 145.83 131.68 L 164.27 131.68 L 164.27 133.68 L 145.83 133.68 Z" fill="#ccccde" fill-rule="nonzero" group-id="3,10" node-id="434" stroke="none" target-height="2" target-width="18.438995" target-x="145.832" target-y="131.675"></path><path d="M 111.12 137.30 L 114.37 137.30 L 114.37 139.30 L 111.12 139.30 Z" fill="#ccccde" fill-rule="nonzero" group-id="3,10" node-id="436" stroke="none" target-height="2" target-width="3.2540054" target-x="111.116" target-y="137.303"></path><path d="M 111.12 142.18 L 119.61 142.18 L 119.61 144.18 L 111.12 144.18 Z" fill="#ccccde" fill-rule="nonzero" group-id="3,10" node-id="438" stroke="none" target-height="2" target-width="8.498001" target-x="111.116" target-y="142.182"></path><path d="M 111.12 147.06 L 123.86 147.06 L 123.86 149.06 L 111.12 149.06 Z" fill="#ccccde" fill-rule="nonzero" group-id="3,10" node-id="440" stroke="none" target-height="2" target-width="12.746002" target-x="111.116" target-y="147.059"></path><path d="M 131.00 147.06 L 134.98 147.06 L 134.98 149.06 L 131.00 149.06 Z" fill="#ccccde" fill-rule="nonzero" group-id="3,10" node-id="442" stroke="none" target-height="2" target-width="3.9799957" target-x="131.003" target-y="147.059"></path><path d="M 111.12 153.06 L 126.30 153.06 L 126.30 155.06 L 111.12 155.06 Z" fill="#a1ffd2" fill-rule="nonzero" group-id="3,10" node-id="444" stroke="none" target-height="2" target-width="15.188004" target-x="111.116" target-y="153.062"></path><path d="M 116.18 157.94 L 128.12 157.94 L 128.12 159.94 L 116.18 159.94 Z" fill="#ccccde" fill-rule="nonzero" group-id="3,10" node-id="446" stroke="none" target-height="2" target-width="11.937004" target-x="116.178" target-y="157.939"></path><path d="M 131.00 157.94 L 135.71 157.94 L 135.71 159.94 L 131.00 159.94 Z" fill="#ccccde" fill-rule="nonzero" group-id="3,10" node-id="448" stroke="none" target-height="2" target-width="4.7039948" target-x="131.003" target-y="157.939"></path><path d="M 140.77 157.94 L 145.11 157.94 L 145.11 159.94 L 140.77 159.94 Z" fill="#ccccde" fill-rule="nonzero" group-id="3,10" node-id="450" stroke="none" target-height="2" target-width="4.3390045" target-x="140.769" target-y="157.939"></path><path d="M 116.18 163.57 L 133.90 163.57 L 133.90 165.57 L 116.18 165.57 Z" fill="#fcbaff" fill-rule="nonzero" group-id="3,10" node-id="452" stroke="none" target-height="2" target-width="17.719994" target-x="116.178" target-y="163.566"></path><path d="M 140.77 163.57 L 143.66 163.57 L 143.66 165.57 L 140.77 165.57 Z" fill="#ccccde" fill-rule="nonzero" group-id="3,10" node-id="454" stroke="none" target-height="2" target-width="2.8930054" target-x="140.769" target-y="163.566"></path><path d="M 111.12 168.82 L 114.73 168.82 L 114.73 170.82 L 111.12 170.82 Z" fill="#ccccde" fill-rule="nonzero" group-id="3,10" node-id="456" stroke="none" target-height="2" target-width="3.6150055" target-x="111.116" target-y="168.82"></path></g><path d="M 87.45 98.78 L 101.75 98.78 L 101.75 212.29 L 87.45 212.29 Z" fill="#6e6e96" fill-opacity="0.51" fill-rule="nonzero" group-id="3,11" node-id="461" stroke="none" target-height="113.509995" target-width="14.302002" target-x="87.448" target-y="98.78"></path></g></svg>